<svg xmlns="http://www.w3.org/2000/svg" viewBox="0 0 128 128" role="img" aria-label="Todo horns icon">
  <defs>
    <linearGradient id="bg" x1="0" y1="0" x2="1" y2="1">
      <stop offset="0" stop-color="#0b0f19"/>
      <stop offset="1" stop-color="#0b0f19"/>
    </linearGradient>
    <linearGradient id="ring" x1="0" y1="0" x2="1" y2="1">
      <stop offset="0" stop-color="#ef4444"/>
      <stop offset="1" stop-color="#a21caf"/>
    </linearGradient>
  </defs>
  <!-- dark tile with subtle gradient ring -->
  <rect x="6" y="6" width="116" height="116" rx="24" fill="url(#bg)"/>
  <rect x="6" y="6" width="116" height="116" rx="24" fill="none" stroke="url(#ring)" stroke-width="6"/>

  <!-- devil horns -->
  <path d="M42 26c-6 5-11 14-12 24 7-4 16-7 25-8-3-7-7-13-13-16z" fill="#ef4444"/>
  <path d="M86 26c6 5 11 14 12 24-7-4-16-7-25-8 3-7 7-13 13-16z" fill="#ef4444"/>

  <!-- checkbox -->
  <rect x="28" y="56" width="72" height="44" rx="12" fill="#111827" stroke="#374151" stroke-width="4"/>
  <!-- checkmark -->
  <path d="M44 78l10 10 30-30" fill="none" stroke="#22c55e" stroke-width="8" stroke-linecap="round" stroke-linejoin="round"/>
</svg>

